<?xml version="1.0" encoding="UTF-8"?>
<svg id="a" data-name="Layer 1" xmlns="http://www.w3.org/2000/svg" viewBox="0 0 500 129.2403">
  <g>
    <g>
      <path d="m74.9251,18.5379c-2.8821,5.1876-4.1463,10.7817-3.8641,17.1022.0663,1.4911.1014,3.809.1464,6.7436.1509,9.9396.4036,26.5753,2.2297,42.5229.053.4633.1344,1.1764.2186,1.7306.6721.0916,2.2156.2341,3.6002.3618,4.0571.3746,9.8995.9143,15.2918,1.8699V17.1123h-16.9554c-.1802.4692-.3997.9443-.6671,1.4257Z" fill="#b22d2d"/>
      <path d="m44.6471,86.999c1.3814-.1274,2.9211-.2695,3.6005-.3622.0839-.5542.1657-1.267.2186-1.7302,1.8259-15.9461,2.0787-32.5812,2.2297-42.5204.0447-2.9358.0798-5.2546.1464-6.7458.2818-6.3205-.982-11.9148-3.8639-17.1022-.2675-.4815-.487-.9566-.6672-1.4258h-16.9556v71.7566c5.3921-.9556,11.2344-1.4953,15.2916-1.8699Z" fill="#b22d2d"/>
      <path d="m44.6225,100.8595c-.6661-.1021-1.3487-.1523-2.0508-.1523l-.2262.0018c-4.662.0675-9.1716,1.0803-12.99,2.321v26.2104l15.267-18.0599v-10.3209Z" fill="#b22d2d"/>
      <path d="m79.5578,100.709l-.2264-.0018c-.7019,0-1.3845.0502-2.0507.152v10.3215l15.2668,18.0597v-26.2104c-3.8184-1.2407-8.3279-2.2535-12.9898-2.321Z" fill="#b22d2d"/>
    </g>
    <path d="m73.6868,101.9904v23.8158h-25.4704v-23.8158c1.5424.7526,3.0182,1.8411,4.4734,3.2961,1.2359,1.2361,4.8954,3.5865,8.1513,3.6869l.1106.0034.1106-.0034c3.2559-.1004,6.9153-2.4508,8.1513-3.6869,1.4552-1.455,2.931-2.5435,4.4734-3.2961Zm45.8147,1.2345c-9.7653-6.1039-13.7234-6.8084-20.2453-9.0445-8.3857-2.8751-24.4382-3.5938-26.6244-4.073-2.1863-.4792-2.3231-.9307-2.7652-4.7918-2.3959-20.9242-2.1164-43.246-2.3959-49.5152-.3848-8.63,1.9167-14.6949,4.3126-19.0075s-.7986-7.9863-3.1945-12.2989c-2.3959-4.3126-7.637-4.4939-7.637-4.4939,0,0-5.2412.1813-7.637,4.4939-2.3959,4.3126-5.5904,7.9863-3.1945,12.2989,2.3959,4.3126,4.6974,10.3775,4.3126,19.0075-.2795,6.2693,0,28.591-2.3959,49.5152-.4421,3.8611-.579,4.3126-2.7652,4.7918-2.1863.4792-18.2388,1.198-26.6244,4.073-6.522,2.2361-10.48,2.9406-20.2453,9.0445-2.3957,1.4974-4.4324,3.8334,1.3178,5.9898,5.7502,2.1563,10.9013-3.1746,12.8779-4.4324s13.4776-7.4898,25.696-7.6669c4.1329-.0599,8.5054,1.198,12.9379,5.6304.9163.9163,3.7738,2.5756,5.7203,2.6355,1.9465-.0599,4.8041-1.7192,5.7203-2.6355,4.4324-4.4324,8.8049-5.6903,12.9379-5.6304,12.2184.1771,23.7194,6.409,25.696,7.6669s7.1278,6.5887,12.8779,4.4324c5.7502-2.1563,3.7134-4.4923,1.3178-5.9898Z" fill="#212225"/>
  </g>
  <g>
    <path d="m158.8045,104.7573c-9.5872,0-17.5051-3.1858-23.7535-9.5562-6.2501-6.3704-9.3743-14.2273-9.3743-23.5716,0-9.4042,3.1242-17.2771,9.3743-23.6176,6.2485-6.3394,14.1663-9.5102,23.7535-9.5102,5.7637,0,11.0875,1.3505,15.9721,4.0493,4.8835,2.701,8.6915,6.3565,11.422,10.9666l-10.8302,6.2806c-1.5784-2.8519-3.8225-5.0809-6.7348-6.6893-2.9123-1.6073-6.1885-2.4121-9.8291-2.4121-6.1885,0-11.1801,1.9423-14.971,5.8247-3.7925,3.8835-5.6882,8.9195-5.6882,15.108,0,6.1286,1.8957,11.1346,5.6882,15.016,3.7909,3.8835,8.7825,5.8247,14.971,5.8247,3.6406,0,6.9312-.8026,9.8746-2.411,2.9423-1.6073,5.1719-3.8075,6.6893-6.5984l10.8302,6.2795c-2.7304,4.6112-6.5229,8.2678-11.3765,10.9666-4.8546,2.701-10.1929,4.0504-16.0176,4.0504Z" fill="#212225"/>
    <path d="m244.7183,95.1551c-6.432,6.4025-14.2589,9.6022-23.4806,9.6022s-17.0348-3.1997-23.4352-9.6022c-6.402-6.4004-9.6017-14.2433-9.6017-23.5256s3.1997-17.1241,9.6017-23.5267c6.4004-6.4004,14.2118-9.6011,23.4352-9.6011s17.0487,3.2007,23.4806,9.6011c6.4304,6.4025,9.6472,14.2433,9.6472,23.5267s-3.2168,17.1252-9.6472,23.5256Zm-38.1333-8.5546c3.9434,3.9134,8.828,5.8696,14.6527,5.8696s10.7077-1.9562,14.6527-5.8696c3.9434-3.9134,5.9156-8.9034,5.9156-14.971s-1.9722-11.0726-5.9156-15.017c-3.945-3.9434-8.828-5.9156-14.6527-5.9156s-10.7093,1.9722-14.6527,5.9156c-3.945,3.9445-5.9156,8.9505-5.9156,15.017s1.9706,11.0576,5.9156,14.971Z" fill="#212225"/>
    <path d="m297.8676,39.7751h12.5595v63.7077h-9.5562l-27.3031-38.9525v38.9525h-12.5595v-63.7077h9.5562l27.3031,38.8615v-38.8615Z" fill="#212225"/>
    <path d="m383.325,71.6295c0,8.2517-2.6095,15.4119-7.8269,21.4784l6.5524,6.8252-8.9189,7.9178-6.9167-7.1891c-4.9145,2.7299-10.2539,4.0954-16.0176,4.0954-9.1624,0-16.9593-3.1997-23.3897-9.6022-6.432-6.4004-9.6472-14.2433-9.6472-23.5256s3.2152-17.1241,9.6472-23.5267c6.4304-6.4004,14.2273-9.6011,23.3897-9.6011s16.9732,3.2007,23.4352,9.6011c6.4614,6.4025,9.6926,14.2433,9.6926,23.5267Zm-33.1278,20.8407c2.366,0,4.7326-.3938,7.0987-1.1825l-10.4663-10.9217,8.9195-7.9178,11.194,11.6494c2.5485-3.6406,3.8225-7.7958,3.8225-12.468,0-6.0665-1.9722-11.0726-5.9156-15.017-3.945-3.9434-8.828-5.9156-14.6527-5.9156s-10.7093,1.9722-14.6527,5.9156c-3.945,3.9445-5.9156,8.9505-5.9156,15.017,0,6.0066,1.9706,10.9816,5.9156,14.925,3.9434,3.9455,8.828,5.9156,14.6527,5.9156Z" fill="#212225"/>
    <path d="m415.7246,39.7751c8.737,0,16.0321,3.0648,21.8878,9.1924,5.8546,6.1286,8.7825,13.6826,8.7825,22.662s-2.9279,16.5334-8.7825,22.6609c-5.8557,6.1297-13.1507,9.1924-21.8878,9.1924h-25.3009v-63.7077h25.3009Zm0,51.6945c5.5202,0,10.011-1.8342,13.4696-5.5058,3.4581-3.6705,5.1874-8.4486,5.1874-14.3343s-1.7293-10.6627-5.1874-14.3343c-3.4586-3.6705-7.9494-5.5058-13.4696-5.5058h-12.7414v39.6802h12.7414Z" fill="#212225"/>
    <path d="m491.6268,70.4459c5.5818,3.2168,8.3732,8.0698,8.3732,14.5622,0,5.4009-1.9112,9.8291-5.7337,13.2867-3.8225,3.4586-8.5251,5.188-14.1064,5.188h-27.0302v-63.7077h25.119c5.4603,0,10.0565,1.6844,13.788,5.0521,3.7315,3.3666,5.5973,7.6599,5.5973,12.8779,0,5.2778-2.0022,9.5262-6.0071,12.7409Zm-13.3781-18.9305h-12.5595v14.0165h12.5595c1.9412,0,3.5635-.6678,4.8691-2.0022,1.3039-1.3344,1.9567-3.0038,1.9567-5.006s-.6373-3.6705-1.9112-5.006c-1.2745-1.3334-2.9123-2.0022-4.9145-2.0022Zm1.9112,40.227c2.1231,0,3.8819-.7127,5.2784-2.1392,1.3949-1.4243,2.0932-3.2307,2.0932-5.4148,0-2.1231-.6983-3.8974-2.0932-5.3239-1.3965-1.4254-3.1553-2.1392-5.2784-2.1392h-14.4707v15.017h14.4707Z" fill="#212225"/>
  </g>
</svg>