<?xml version="1.0" encoding="UTF-8"?>
<svg id="a" data-name="Layer 1" xmlns="http://www.w3.org/2000/svg" viewBox="0 0 499 128.9819">
  <g id="b" data-name="dark-mode">
    <g>
      <g>
        <path d="m74.7753,18.5009c-2.8763,5.1772-4.138,10.7602-3.8564,17.068.0662,1.4881.1012,3.8014.1461,6.7301.1506,9.9197.4028,26.5222,2.2252,42.4378.0529.4623.1341,1.1741.2182,1.7271.6707.0914,2.2112.2336,3.593.3611,4.049.3738,9.8797.9124,15.2612,1.8662V17.0781h-16.9215c-.1798.4683-.3989.9424-.6658,1.4228Z" fill="#b22d2d"/>
        <path d="m44.5578,86.825c1.3786-.1271,2.9152-.269,3.5933-.3615.0837-.5531.1653-1.2644.2182-1.7268,1.8222-15.9142,2.0746-32.516,2.2252-42.4354.0447-2.9299.0797-5.2441.1461-6.7323.2813-6.3078-.98-11.891-3.8562-17.068-.2669-.4805-.4861-.9547-.6659-1.423h-16.9217v71.6131c5.3813-.9537,11.2119-1.4923,15.261-1.8662Z" fill="#b22d2d"/>
        <path d="m44.5333,100.6578c-.6648-.1019-1.346-.152-2.0467-.152l-.2257.0018c-4.6527.0673-9.1532,1.0781-12.964,2.3164v26.1579l15.2365-18.0238v-10.3003Z" fill="#b22d2d"/>
        <path d="m79.3987,100.5075l-.2259-.0018c-.7005,0-1.3818.0501-2.0466.1517v10.3009l15.2363,18.0235v-26.1579c-3.8108-1.2383-8.3113-2.249-12.9638-2.3164Z" fill="#b22d2d"/>
      </g>
      <path d="m73.5394,101.7864v23.7682h-25.4194v-23.7682c1.5393.7511,3.0122,1.8374,4.4644,3.2896,1.2334,1.2336,4.8856,3.5793,8.135,3.6795l.1103.0034.1103-.0034c3.2494-.1002,6.9015-2.4459,8.135-3.6795,1.4523-1.4521,2.9251-2.5384,4.4644-3.2896Zm45.7231,1.232c-9.7458-6.0917-13.6959-6.7948-20.2048-9.0264-8.3689-2.8693-24.3893-3.5867-26.5712-4.0649-2.1819-.4782-2.3185-.9288-2.7597-4.7822-2.3911-20.8823-2.1122-43.1595-2.3911-49.4162-.384-8.6127,1.9129-14.6655,4.304-18.9695s-.797-7.9703-3.1882-12.2743c-2.3911-4.304-7.6218-4.4849-7.6218-4.4849,0,0-5.2307.1809-7.6218,4.4849-2.3911,4.304-5.5793,7.9703-3.1882,12.2743,2.3911,4.304,4.688,10.3567,4.304,18.9695-.279,6.2567,0,28.5339-2.3911,49.4162-.4412,3.8534-.5778,4.304-2.7597,4.7822-2.1819.4782-18.2023,1.1956-26.5712,4.0649-6.5089,2.2316-10.459,2.9347-20.2048,9.0264-2.3909,1.4944-4.4235,3.8258,1.3151,5.9778s10.8795-3.1682,12.8522-4.4235,13.4507-7.4748,25.6446-7.6516c4.1247-.0598,8.4884,1.1956,12.912,5.6191.9144.9144,3.7662,2.5704,5.7089,2.6302,1.9427-.0598,4.7945-1.7158,5.7089-2.6302,4.4235-4.4235,8.7873-5.6789,12.912-5.6191,12.1939.1767,23.672,6.3962,25.6446,7.6516s7.1135,6.5755,12.8522,4.4235,3.706-4.4833,1.3151-5.9778Z" fill="#fcfcfd"/>
    </g>
    <g>
      <path d="m158.4869,104.5478c-9.5681,0-17.4701-3.1794-23.706-9.5371-6.2376-6.3577-9.3555-14.1988-9.3555-23.5245,0-9.3854,3.118-17.2426,9.3555-23.5704,6.236-6.3267,14.138-9.4912,23.706-9.4912,5.7522,0,11.0654,1.3478,15.9402,4.0412,4.8737,2.6956,8.6742,6.3438,11.3991,10.9447l-10.8085,6.268c-1.5753-2.8462-3.8148-5.0708-6.7214-6.676-2.9065-1.6041-6.1761-2.4072-9.8094-2.4072-6.1761,0-11.1578,1.9384-14.9411,5.813-3.7849,3.8757-5.6769,8.9016-5.6769,15.0778,0,6.1163,1.8919,11.1124,5.6769,14.9859,3.7833,3.8757,8.7649,5.813,14.9411,5.813,3.6333,0,6.9173-.801,9.8548-2.4062,2.9364-1.6041,5.1616-3.7999,6.676-6.5852l10.8085,6.2669c-2.725,4.6019-6.5099,8.2512-11.3537,10.9447-4.8449,2.6956-10.1725,4.0423-15.9856,4.0423Z" fill="#fcfcfd"/>
      <path d="m244.2289,94.9647c-6.4191,6.3897-14.2303,9.583-23.4337,9.583s-17.0007-3.1933-23.3883-9.583c-6.3892-6.3876-9.5825-14.2149-9.5825-23.4785s3.1933-17.0899,9.5825-23.4796c6.3876-6.3876,14.1834-9.5819,23.3883-9.5819s17.0146,3.1943,23.4337,9.5819c6.4175,6.3897,9.6279,14.2149,9.6279,23.4796s-3.2104,17.0909-9.6279,23.4785Zm-38.057-8.5375c3.9355,3.9056,8.8103,5.8579,14.6234,5.8579s10.6862-1.9523,14.6234-5.8579c3.9355-3.9056,5.9038-8.8856,5.9038-14.9411s-1.9683-11.0504-5.9038-14.987c-3.9371-3.9355-8.8103-5.9038-14.6234-5.9038s-10.6878,1.9683-14.6234,5.9038c-3.9371,3.9366-5.9038,8.9326-5.9038,14.987s1.9667,11.0355,5.9038,14.9411Z" fill="#fcfcfd"/>
      <path d="m297.2719,39.6955h12.5344v63.5802h-9.5371l-27.2485-38.8746v38.8746h-12.5344v-63.5802h9.5371l27.2485,38.7838v-38.7838Z" fill="#fcfcfd"/>
      <path d="m382.5583,71.4862c0,8.2352-2.6043,15.3811-7.8112,21.4355l6.5393,6.8116-8.9011,7.902-6.9029-7.1747c-4.9047,2.7244-10.2334,4.0872-15.9856,4.0872-9.1441,0-16.9254-3.1933-23.3429-9.583-6.4191-6.3876-9.6279-14.2149-9.6279-23.4785s3.2088-17.0899,9.6279-23.4796c6.4175-6.3876,14.1988-9.5819,23.3429-9.5819s16.9393,3.1943,23.3883,9.5819c6.4485,6.3897,9.6733,14.2149,9.6733,23.4796Zm-33.0616,20.799c2.3613,0,4.7232-.393,7.0845-1.1801l-10.4454-10.8998,8.9016-7.902,11.1716,11.6261c2.5434-3.6333,3.8148-7.7803,3.8148-12.4431,0-6.0544-1.9683-11.0504-5.9038-14.987-3.9371-3.9355-8.8103-5.9038-14.6234-5.9038s-10.6878,1.9683-14.6234,5.9038c-3.9371,3.9366-5.9038,8.9326-5.9038,14.987,0,5.9946,1.9667,10.9596,5.9038,14.8952,3.9355,3.9377,8.8103,5.9038,14.6234,5.9038Z" fill="#fcfcfd"/>
      <path d="m414.8931,39.6955c8.7195,0,16,3.0587,21.844,9.174,5.8429,6.1163,8.7649,13.6552,8.7649,22.6167s-2.922,16.5003-8.7649,22.6156c-5.844,6.1174-13.1244,9.174-21.844,9.174h-25.2503v-63.5802h25.2503Zm0,51.5911c5.5092,0,9.991-1.8305,13.4427-5.4948,3.4512-3.6632,5.177-8.4317,5.177-14.3056s-1.7259-10.6414-5.177-14.3056c-3.4517-3.6632-7.9335-5.4948-13.4427-5.4948h-12.7159v39.6008h12.7159Z" fill="#fcfcfd"/>
      <path d="m490.6436,70.305c5.5706,3.2104,8.3564,8.0537,8.3564,14.5331,0,5.3901-1.9074,9.8094-5.7223,13.2601-3.8148,3.4517-8.5081,5.1776-14.0782,5.1776h-26.9762v-63.5802h25.0688c5.4494,0,10.0364,1.681,13.7604,5.0419,3.7241,3.3599,5.5861,7.6446,5.5861,12.8521,0,5.2673-1.9982,9.5072-5.9951,12.7154Zm-13.3514-18.8926h-12.5344v13.9884h12.5344c1.9373,0,3.5564-.6664,4.8593-1.9982,1.3013-1.3318,1.9528-2.9978,1.9528-4.996s-.636-3.6632-1.9074-4.996c-1.272-1.3307-2.9065-1.9982-4.9047-1.9982Zm1.9074,40.1466c2.1189,0,3.8741-.7113,5.2678-2.1349,1.3921-1.4215,2.089-3.2242,2.089-5.404,0-2.1189-.6969-3.8896-2.089-5.3132-1.3937-1.4226-3.1489-2.1349-5.2678-2.1349h-14.4418v14.987h14.4418Z" fill="#fcfcfd"/>
    </g>
  </g>
</svg>