<svg xmlns="http://www.w3.org/2000/svg" viewBox="0 0 48 48"><circle cx="24" cy="24" r="5" /><circle cx="3.4" cy="24" r="3.4" /><circle cx="24" cy="44.6" r="3.4" /><path d="M39.5,35.8a9.7,9.7,0,0,0-2.4-1.5l-2.3-1.1L33,32.6l-.7-.3.3.7.6,1.8c.4.8.7,1.6,1.1,2.3a9.7,9.7,0,0,0,1.5,2.4l.7.9.3.3,1.1.8,2.4,1.4,2.3,1,1.5.5h.4c0-.2,0-.3-.1-.4a8.8,8.8,0,0,0-.5-1.5c-.3-.8-.7-1.6-1-2.3s-.9-1.6-1.4-2.4l-.8-1.1-.3-.3Z" transform="translate(0)" /><path d="M12.2,8.5a9.7,9.7,0,0,1,1.5,2.4c.4.7.7,1.5,1.1,2.3l.6,1.8.3.7-.7-.3-1.8-.6-2.3-1.1a9.7,9.7,0,0,1-2.4-1.5l-.9-.7-.3-.3-.8-1.1c-.5-.8-1-1.6-1.4-2.4s-.7-1.5-1-2.3a8.8,8.8,0,0,1-.5-1.5c-.1-.1-.1-.2-.1-.4a.1.1,0,0,0-.1-.1.1.1,0,0,1,.1.1h.4l1.5.5,2.3,1,2.4,1.4,1.1.8.3.3Z" transform="translate(0)" /><path d="M35.8,8.5a9.7,9.7,0,0,0-1.5,2.4c-.4.7-.7,1.5-1.1,2.3L32.6,15l-.3.7.7-.3,1.8-.6,2.3-1.1a9.7,9.7,0,0,0,2.4-1.5l.9-.7.3-.3.8-1.1c.5-.8,1-1.6,1.4-2.4s.7-1.5,1-2.3a8.8,8.8,0,0,0,.5-1.5c.1-.1.1-.2.1-.4h-.4l-1.5.5-2.3,1L37.9,6.5l-1.1.8-.3.3Z" transform="translate(0)" /><path d="M8.5,35.8a9.7,9.7,0,0,1,2.4-1.5l2.3-1.1,1.8-.6.7-.3-.3.7-.6,1.8c-.4.8-.7,1.6-1.1,2.3a9.7,9.7,0,0,1-1.5,2.4l-.7.9-.3.3-1.1.8L7.7,42.9l-2.3,1-1.5.5H3.5c0-.2,0-.3.1-.4a8.8,8.8,0,0,1,.5-1.5c.3-.8.7-1.6,1-2.3s.9-1.6,1.4-2.4l.8-1.1.3-.3Z" transform="translate(0)" /><path d="M37.9,24a6.7,6.7,0,0,1,5.6-6.6,13.6,13.6,0,0,0-1.3-3l-.7.6a22.9,22.9,0,0,1-2.8,1.7l-2.6,1.2-2,.7-.8.3-2.2.6a8.4,8.4,0,0,1,0,9l2.2.6.8.3,2,.7,2.6,1.2A22.9,22.9,0,0,1,41.5,33l.7.6a13.6,13.6,0,0,0,1.3-3A6.7,6.7,0,0,1,37.9,24Z" transform="translate(0)" /><circle cx="44.6" cy="24" r="3.4" /><circle cx="24" cy="3.4" r="3.4" /><path d="M15.6,24a8.7,8.7,0,0,1,1.3-4.5l-2.2-.6-.8-.3-2-.7L9.3,16.7A22.9,22.9,0,0,1,6.5,15l-.7-.6a13.6,13.6,0,0,0-1.3,3,6.7,6.7,0,0,1,0,13.2,13.6,13.6,0,0,0,1.3,3l.7-.6a22.9,22.9,0,0,1,2.8-1.7l2.6-1.2,2-.7.8-.3,2.2-.6A8.7,8.7,0,0,1,15.6,24Z" transform="translate(0)" /><path d="M24,37.9a6.7,6.7,0,0,1,6.6,5.6,13.6,13.6,0,0,0,3-1.3l-.6-.7a22.9,22.9,0,0,1-1.7-2.8l-1.2-2.6a15.9,15.9,0,0,1-.7-2l-.3-.8-.6-2.2a8.4,8.4,0,0,1-9,0l-.6,2.2-.3.8a15.9,15.9,0,0,1-.7,2l-1.2,2.6A22.9,22.9,0,0,1,15,41.5l-.6.7a13.6,13.6,0,0,0,3,1.3A6.7,6.7,0,0,1,24,37.9Z" transform="translate(0)" /><path d="M30.6,4.5a6.7,6.7,0,0,1-13.2,0,13.6,13.6,0,0,0-3,1.3l.6.7a22.9,22.9,0,0,1,1.7,2.8l1.2,2.6a15.9,15.9,0,0,1,.7,2l.3.8.6,2.2a8.4,8.4,0,0,1,9,0l.6-2.2.3-.8a11.8,11.8,0,0,1,.7-2l1.2-2.6A22.9,22.9,0,0,1,33,6.5l.6-.7A13.6,13.6,0,0,0,30.6,4.5Z" transform="translate(0)"/></svg>